<svg xmlns="http://www.w3.org/2000/svg" width="900" height="1200" viewBox="0 0 900 1200" role="img" aria-labelledby="title desc">
<title id="title">Wild and The Sun temporary café menu artwork</title><desc id="desc">A decorative temporary menu image with broad food and drink categories. Current items and prices are on the Square ordering website.</desc>
<rect width="900" height="1200" fill="#f5f0e8"/><rect x="26" y="26" width="848" height="1148" rx="6" fill="none" stroke="#163307" stroke-width="2"/>
<circle cx="736" cy="174" r="117" fill="#e9c6cf"/><circle cx="736" cy="174" r="83" fill="none" stroke="#163307" stroke-width="2"/><path d="M736 76v36M736 236v36M638 174h36M798 174h36M667 105l25 25M780 218l25 25M805 105l-25 25M692 218l-25 25" stroke="#163307" stroke-width="2"/>
<text x="81" y="98" font-family="Arial,sans-serif" font-size="24" letter-spacing="8" fill="#163307">WILD AND THE SUN</text>
<path d="M80 142h455" stroke="#163307" stroke-width="2"/>
<text x="76" y="290" font-family="Georgia,serif" font-size="105" fill="#163307">The good</text><text x="76" y="395" font-family="Georgia,serif" font-style="italic" font-size="105" fill="#163307">things.</text>
<text x="82" y="456" font-family="Arial,sans-serif" font-size="22" letter-spacing="3" fill="#163307">A CAFÉ MENU PREVIEW</text>
<path d="M81 500h738" stroke="#163307" stroke-width="2"/>
<g font-family="Georgia,serif" fill="#163307" font-size="54"><text x="82" y="600">Açaí bowls</text><text x="82" y="706">Coffee &amp; tea</text><text x="82" y="812">Smoothies &amp; drinks</text><text x="82" y="918">Savoury &amp; sweet</text></g>
<g stroke="#163307" stroke-width="2"><path d="M81 628h738M81 734h738M81 840h738M81 946h738"/></g>
<circle cx="766" cy="567" r="13" fill="#e9c6cf"/><circle cx="766" cy="673" r="13" fill="#e9c6cf"/><circle cx="766" cy="779" r="13" fill="#e9c6cf"/><circle cx="766" cy="885" r="13" fill="#e9c6cf"/>
<text x="82" y="1028" font-family="Arial,sans-serif" font-size="22" fill="#163307">Temporary artwork. Final café menu image to follow.</text><text x="82" y="1064" font-family="Arial,sans-serif" font-size="22" fill="#163307">For current items and prices, see our Square store.</text>
<rect x="80" y="1103" width="740" height="2" fill="#163307"/><text x="82" y="1140" font-family="Arial,sans-serif" font-size="18" letter-spacing="4" fill="#163307">ABERFOYLE PARK  ·  SOUTH AUSTRALIA</text>
</svg>
